<mxfile host="Electron" agent="Mozilla/5.0 (Windows NT 10.0; Win64; x64) AppleWebKit/537.36 (KHTML, like Gecko) draw.io/27.0.9 Chrome/134.0.6998.205 Electron/35.4.0 Safari/537.36" version="27.0.9">
  <diagram name="Page-1" id="dgCNba_4N36sK-C0k3VW">
    <mxGraphModel dx="1425" dy="828" grid="1" gridSize="10" guides="1" tooltips="1" connect="1" arrows="1" fold="1" page="1" pageScale="1" pageWidth="850" pageHeight="1100" math="0" shadow="0">
      <root>
        <mxCell id="0" />
        <mxCell id="1" parent="0" />
        <mxCell id="4xMjiQKorM3x4zLwSIfw-1" style="edgeStyle=orthogonalEdgeStyle;rounded=0;orthogonalLoop=1;jettySize=auto;html=1;exitX=0.5;exitY=1;exitDx=0;exitDy=0;entryX=0.5;entryY=0;entryDx=0;entryDy=0;" edge="1" parent="1" source="O7CF1etvv4BRTKYx8te_-1" target="O7CF1etvv4BRTKYx8te_-3">
          <mxGeometry relative="1" as="geometry" />
        </mxCell>
        <mxCell id="O7CF1etvv4BRTKYx8te_-1" value="TCP Stack&lt;div&gt;bind ep&lt;/div&gt;" style="rounded=0;whiteSpace=wrap;html=1;" parent="1" vertex="1">
          <mxGeometry x="130" y="80" width="120" height="60" as="geometry" />
        </mxCell>
        <mxCell id="4xMjiQKorM3x4zLwSIfw-4" style="edgeStyle=orthogonalEdgeStyle;rounded=0;orthogonalLoop=1;jettySize=auto;html=1;exitX=0.5;exitY=1;exitDx=0;exitDy=0;entryX=0.5;entryY=0;entryDx=0;entryDy=0;" edge="1" parent="1" source="O7CF1etvv4BRTKYx8te_-3" target="O7CF1etvv4BRTKYx8te_-5">
          <mxGeometry relative="1" as="geometry" />
        </mxCell>
        <mxCell id="O7CF1etvv4BRTKYx8te_-3" value="Incoming Stream" style="rounded=1;whiteSpace=wrap;html=1;" parent="1" vertex="1">
          <mxGeometry x="130" y="155" width="120" height="50" as="geometry" />
        </mxCell>
        <mxCell id="4xMjiQKorM3x4zLwSIfw-6" style="edgeStyle=orthogonalEdgeStyle;rounded=0;orthogonalLoop=1;jettySize=auto;html=1;exitX=0.5;exitY=1;exitDx=0;exitDy=0;entryX=0.5;entryY=0;entryDx=0;entryDy=0;" edge="1" parent="1" source="O7CF1etvv4BRTKYx8te_-5" target="O7CF1etvv4BRTKYx8te_-6">
          <mxGeometry relative="1" as="geometry" />
        </mxCell>
        <mxCell id="O7CF1etvv4BRTKYx8te_-5" value="Protocl Parser" style="rounded=0;whiteSpace=wrap;html=1;" parent="1" vertex="1">
          <mxGeometry x="200" y="290" width="120" height="50" as="geometry" />
        </mxCell>
        <mxCell id="4xMjiQKorM3x4zLwSIfw-7" style="edgeStyle=orthogonalEdgeStyle;rounded=0;orthogonalLoop=1;jettySize=auto;html=1;exitX=0.5;exitY=1;exitDx=0;exitDy=0;entryX=0.5;entryY=0;entryDx=0;entryDy=0;" edge="1" parent="1" source="O7CF1etvv4BRTKYx8te_-6" target="O7CF1etvv4BRTKYx8te_-8">
          <mxGeometry relative="1" as="geometry" />
        </mxCell>
        <mxCell id="O7CF1etvv4BRTKYx8te_-6" value="Http Request" style="rounded=1;whiteSpace=wrap;html=1;" parent="1" vertex="1">
          <mxGeometry x="200" y="370" width="120" height="60" as="geometry" />
        </mxCell>
        <mxCell id="4xMjiQKorM3x4zLwSIfw-2" style="edgeStyle=orthogonalEdgeStyle;rounded=0;orthogonalLoop=1;jettySize=auto;html=1;exitX=0.5;exitY=1;exitDx=0;exitDy=0;entryX=0.5;entryY=0;entryDx=0;entryDy=0;" edge="1" parent="1" source="O7CF1etvv4BRTKYx8te_-7" target="O7CF1etvv4BRTKYx8te_-24">
          <mxGeometry relative="1" as="geometry" />
        </mxCell>
        <mxCell id="O7CF1etvv4BRTKYx8te_-7" value="TLS Stack&lt;div&gt;bind ep&lt;/div&gt;" style="rounded=0;whiteSpace=wrap;html=1;" parent="1" vertex="1">
          <mxGeometry x="270" y="80" width="120" height="60" as="geometry" />
        </mxCell>
        <mxCell id="4xMjiQKorM3x4zLwSIfw-8" style="edgeStyle=orthogonalEdgeStyle;rounded=0;orthogonalLoop=1;jettySize=auto;html=1;exitX=0.5;exitY=1;exitDx=0;exitDy=0;entryX=0.5;entryY=0;entryDx=0;entryDy=0;" edge="1" parent="1" source="O7CF1etvv4BRTKYx8te_-8" target="O7CF1etvv4BRTKYx8te_-9">
          <mxGeometry relative="1" as="geometry" />
        </mxCell>
        <mxCell id="O7CF1etvv4BRTKYx8te_-8" value="Server.handler" style="rounded=0;whiteSpace=wrap;html=1;" parent="1" vertex="1">
          <mxGeometry x="200" y="490" width="120" height="60" as="geometry" />
        </mxCell>
        <mxCell id="4xMjiQKorM3x4zLwSIfw-9" style="edgeStyle=orthogonalEdgeStyle;rounded=0;orthogonalLoop=1;jettySize=auto;html=1;exitX=0.5;exitY=1;exitDx=0;exitDy=0;entryX=0.5;entryY=0;entryDx=0;entryDy=0;" edge="1" parent="1" source="O7CF1etvv4BRTKYx8te_-9" target="O7CF1etvv4BRTKYx8te_-10">
          <mxGeometry relative="1" as="geometry" />
        </mxCell>
        <mxCell id="O7CF1etvv4BRTKYx8te_-9" value="InnerService&lt;div&gt;Router.handler&lt;/div&gt;" style="rounded=0;whiteSpace=wrap;html=1;" parent="1" vertex="1">
          <mxGeometry x="200" y="580" width="120" height="60" as="geometry" />
        </mxCell>
        <mxCell id="4xMjiQKorM3x4zLwSIfw-10" style="edgeStyle=orthogonalEdgeStyle;rounded=0;orthogonalLoop=1;jettySize=auto;html=1;exitX=0.5;exitY=1;exitDx=0;exitDy=0;entryX=0;entryY=0.5;entryDx=0;entryDy=0;" edge="1" parent="1" source="O7CF1etvv4BRTKYx8te_-10" target="O7CF1etvv4BRTKYx8te_-11">
          <mxGeometry relative="1" as="geometry" />
        </mxCell>
        <mxCell id="O7CF1etvv4BRTKYx8te_-10" value="JSON Request" style="rounded=1;whiteSpace=wrap;html=1;" parent="1" vertex="1">
          <mxGeometry x="200" y="680" width="120" height="60" as="geometry" />
        </mxCell>
        <mxCell id="4xMjiQKorM3x4zLwSIfw-11" style="edgeStyle=orthogonalEdgeStyle;rounded=0;orthogonalLoop=1;jettySize=auto;html=1;exitX=1;exitY=0.5;exitDx=0;exitDy=0;entryX=0.5;entryY=1;entryDx=0;entryDy=0;" edge="1" parent="1" source="O7CF1etvv4BRTKYx8te_-11" target="O7CF1etvv4BRTKYx8te_-20">
          <mxGeometry relative="1" as="geometry" />
        </mxCell>
        <mxCell id="O7CF1etvv4BRTKYx8te_-11" value="InnerService.handler" style="rounded=0;whiteSpace=wrap;html=1;" parent="1" vertex="1">
          <mxGeometry x="350" y="770" width="120" height="60" as="geometry" />
        </mxCell>
        <mxCell id="O7CF1etvv4BRTKYx8te_-12" value="" style="endArrow=none;dashed=1;html=1;dashPattern=1 3;strokeWidth=2;rounded=0;" parent="1" edge="1">
          <mxGeometry width="50" height="50" relative="1" as="geometry">
            <mxPoint x="115" y="260" as="sourcePoint" />
            <mxPoint x="405" y="260" as="targetPoint" />
          </mxGeometry>
        </mxCell>
        <mxCell id="O7CF1etvv4BRTKYx8te_-13" value="" style="endArrow=none;dashed=1;html=1;dashPattern=1 3;strokeWidth=2;rounded=0;" parent="1" edge="1">
          <mxGeometry width="50" height="50" relative="1" as="geometry">
            <mxPoint x="115" y="670" as="sourcePoint" />
            <mxPoint x="630" y="670" as="targetPoint" />
          </mxGeometry>
        </mxCell>
        <mxCell id="O7CF1etvv4BRTKYx8te_-14" value="Stack" style="text;html=1;align=center;verticalAlign=middle;whiteSpace=wrap;rounded=0;" parent="1" vertex="1">
          <mxGeometry x="20" y="140" width="60" height="30" as="geometry" />
        </mxCell>
        <mxCell id="O7CF1etvv4BRTKYx8te_-15" value="Server" style="text;html=1;align=center;verticalAlign=middle;whiteSpace=wrap;rounded=0;" parent="1" vertex="1">
          <mxGeometry x="20" y="440" width="60" height="30" as="geometry" />
        </mxCell>
        <mxCell id="O7CF1etvv4BRTKYx8te_-16" value="Service" style="text;html=1;align=center;verticalAlign=middle;whiteSpace=wrap;rounded=0;" parent="1" vertex="1">
          <mxGeometry x="20" y="695" width="60" height="30" as="geometry" />
        </mxCell>
        <mxCell id="O7CF1etvv4BRTKYx8te_-17" value="proces chain" style="shape=parallelogram;perimeter=parallelogramPerimeter;whiteSpace=wrap;html=1;fixedSize=1;" parent="1" vertex="1">
          <mxGeometry x="130" y="215" width="120" height="30" as="geometry" />
        </mxCell>
        <mxCell id="O7CF1etvv4BRTKYx8te_-18" value="proces chain" style="shape=parallelogram;perimeter=parallelogramPerimeter;whiteSpace=wrap;html=1;fixedSize=1;" parent="1" vertex="1">
          <mxGeometry x="200" y="450" width="120" height="20" as="geometry" />
        </mxCell>
        <mxCell id="O7CF1etvv4BRTKYx8te_-19" value="Protcol probe" style="rounded=0;whiteSpace=wrap;html=1;" parent="1" vertex="1">
          <mxGeometry x="20" y="220" width="90" height="20" as="geometry" />
        </mxCell>
        <mxCell id="4xMjiQKorM3x4zLwSIfw-12" style="edgeStyle=orthogonalEdgeStyle;rounded=0;orthogonalLoop=1;jettySize=auto;html=1;exitX=0.5;exitY=0;exitDx=0;exitDy=0;" edge="1" parent="1" source="O7CF1etvv4BRTKYx8te_-20" target="O7CF1etvv4BRTKYx8te_-21">
          <mxGeometry relative="1" as="geometry" />
        </mxCell>
        <mxCell id="O7CF1etvv4BRTKYx8te_-20" value="JSON Resp" style="rounded=1;whiteSpace=wrap;html=1;" parent="1" vertex="1">
          <mxGeometry x="490" y="680" width="120" height="60" as="geometry" />
        </mxCell>
        <mxCell id="4xMjiQKorM3x4zLwSIfw-13" style="edgeStyle=orthogonalEdgeStyle;rounded=0;orthogonalLoop=1;jettySize=auto;html=1;exitX=0.5;exitY=0;exitDx=0;exitDy=0;" edge="1" parent="1" source="O7CF1etvv4BRTKYx8te_-21" target="O7CF1etvv4BRTKYx8te_-23">
          <mxGeometry relative="1" as="geometry" />
        </mxCell>
        <mxCell id="O7CF1etvv4BRTKYx8te_-21" value="Http Response" style="rounded=1;whiteSpace=wrap;html=1;" parent="1" vertex="1">
          <mxGeometry x="490" y="370" width="120" height="60" as="geometry" />
        </mxCell>
        <mxCell id="O7CF1etvv4BRTKYx8te_-22" value="proces chain" style="shape=parallelogram;perimeter=parallelogramPerimeter;whiteSpace=wrap;html=1;fixedSize=1;" parent="1" vertex="1">
          <mxGeometry x="490" y="330" width="120" height="20" as="geometry" />
        </mxCell>
        <mxCell id="4xMjiQKorM3x4zLwSIfw-14" style="edgeStyle=orthogonalEdgeStyle;rounded=0;orthogonalLoop=1;jettySize=auto;html=1;exitX=0.5;exitY=0;exitDx=0;exitDy=0;entryX=1;entryY=0.5;entryDx=0;entryDy=0;" edge="1" parent="1" source="O7CF1etvv4BRTKYx8te_-23" target="O7CF1etvv4BRTKYx8te_-24">
          <mxGeometry relative="1" as="geometry" />
        </mxCell>
        <mxCell id="O7CF1etvv4BRTKYx8te_-23" value="proces chain" style="shape=parallelogram;perimeter=parallelogramPerimeter;whiteSpace=wrap;html=1;fixedSize=1;" parent="1" vertex="1">
          <mxGeometry x="490" y="217.5" width="120" height="25" as="geometry" />
        </mxCell>
        <mxCell id="4xMjiQKorM3x4zLwSIfw-5" style="edgeStyle=orthogonalEdgeStyle;rounded=0;orthogonalLoop=1;jettySize=auto;html=1;exitX=0.5;exitY=1;exitDx=0;exitDy=0;" edge="1" parent="1" source="O7CF1etvv4BRTKYx8te_-24">
          <mxGeometry relative="1" as="geometry">
            <mxPoint x="260" y="290" as="targetPoint" />
          </mxGeometry>
        </mxCell>
        <mxCell id="O7CF1etvv4BRTKYx8te_-24" value="Incoming Stream" style="rounded=1;whiteSpace=wrap;html=1;" parent="1" vertex="1">
          <mxGeometry x="270" y="155" width="120" height="50" as="geometry" />
        </mxCell>
        <mxCell id="O7CF1etvv4BRTKYx8te_-25" value="proces chain" style="shape=parallelogram;perimeter=parallelogramPerimeter;whiteSpace=wrap;html=1;fixedSize=1;" parent="1" vertex="1">
          <mxGeometry x="270" y="215" width="120" height="30" as="geometry" />
        </mxCell>
      </root>
    </mxGraphModel>
  </diagram>
</mxfile>
